<?xml version="1.0" standalone="no"?>
<svg width="516" height="686" viewBox="0 0 516 686" xmlns="http://www.w3.org/2000/svg" xmlns:xlink="http://www.w3.org/1999/xlink">
<title>Singapore Air Force roundel</title>
<g transform="translate(258,343)scale(0.4,-0.4)rotate(-17.5)">
<g stroke="#ffffff" stroke-width="48">
<path stroke-linejoin="round" fill="#ffffff" d="M-348.549,-841.473
C-343.343,-842.714,-338.137,-843.954,-332.931,-845.195
C-271.178,-858.465,-215.305,-867.108,-137.412,-867.589
C320.325,-866.346,654.013,-523.171,654.983,-133.258
C653.804,46.5867,581.498,219.264,436.979,335.306
L-436.979,-335.306
C-581.498,-219.264,-653.804,-46.5867,-654.983,133.258
C-654.013,523.171,-320.325,866.346,137.412,867.589
C215.305,867.108,271.178,858.465,332.931,845.195
C338.137,843.954,343.343,842.714,348.549,841.473Z"/>
<circle fill="none" r="550.8"/>
<path id="Kludge" d="M432.3296,340.47204l21.5,-20"/>
<use transform="rotate(180)" xlink:href="#Kludge"/>
</g>
<path id="Kludg2" stroke="#ce1126" d="M432.3296,340.47204l21.5,-20"/>
<use transform="rotate(180)" xlink:href="#Kludg2"/>
<circle r="550.8" fill="#ce1126"/>
<path fill="#ffffff" d="M-206.649,-498.895
C-141.133,-526.032,-70.9136,-540,0,-540
C70.9136,-540,141.133,-526.032,206.649,-498.895
C272.165,-471.757,331.694,-431.981,381.838,-381.837
C431.981,-331.694,471.757,-272.165,498.895,-206.649
C526.032,-141.133,540,-70.9136,540,0
C540,70.9136,526.032,141.133,498.895,206.649
C471.757,272.165,431.981,331.694,381.837,381.838
C331.694,431.981,272.165,471.757,206.649,498.895
C173.891,512.463,138.781,519.447,103.325,519.447
C67.8677,519.447,32.7578,512.463,0,498.895
C-32.7578,485.326,-62.5225,465.438,-87.5942,440.366
C-112.666,415.294,-132.554,385.53,-146.123,352.772
C-159.691,320.014,-166.675,284.904,-166.675,249.447
C-166.675,213.99,-159.692,178.88,-146.123,146.123
C-132.554,113.365,-112.666,83.6003,-87.5942,58.5286
C-62.5225,33.4568,-32.7578,13.5686,0,0
C32.7578,-13.5686,62.5225,-33.4568,87.5942,-58.5286
C112.666,-83.6003,132.554,-113.365,146.123,-146.123
C159.692,-178.88,166.675,-213.99,166.675,-249.447
C166.675,-284.904,159.691,-320.014,146.123,-352.772
C132.554,-385.53,112.666,-415.294,87.5942,-440.366
C62.5225,-465.438,32.7578,-485.326,0,-498.895
C-32.7578,-512.463,-67.8677,-519.447,-103.325,-519.447
C-138.781,-519.447,-173.891,-512.463,-206.649,-498.895Z"/>
<circle cx="103.3245" cy="249.4475" r="90" fill="#ce1126"/>
<circle cx="-103.3245" cy="-249.4475" r="90" fill="#ffffff"/>
<g fill="#ce1126">
<path id="Swash" d="M-233.744,-564.309
C-172.582,-586.698,-104.523,-602.14,-21.0304,-602.236
C309.327,-599.787,563.976,-339.906,566.261,-24.7235
C566.231,-0.0422021,565.049,14.795,564.263,24.636
C555.171,127.093,515.434,240.595,436.979,335.306
C538.873,222.141,582.06,86.3251,582.6,-45.8516
C581.039,-378.886,307.63,-652.93,-45.7606,-654.408
C-63.6778,-654.333,-75.71,-653.986,-97.4959,-652.361
C-145.741,-648.335,-195.428,-640.05,-256.707,-619.745Z
M-279.662,-675.164
C-198.622,-699.77,-131.6,-706.878,-68.088,-707.123
C305.938,-705.319,598.131,-419.241,599.718,-68.3291
C599.71,-66.5626,599.703,-64.7968,599.695,-63.0303
C597.481,106.67,532.559,223.995,456.895,314.015
C450.256,321.112,443.618,328.209,436.979,335.306
C468.623,305.481,617.121,164.443,617.54,-92.292
C615.016,-448.9,315.386,-759.742,-93.3514,-760.287
C-169.094,-759.715,-222.678,-750.519,-282.536,-736.031
C-289.232,-734.221,-295.929,-732.41,-302.625,-730.6Z
M-325.587,-786.037
C-259.895,-803.119,-193.798,-813.374,-114.372,-813.802
C319.232,-812.365,634.62,-484.617,635.989,-112.142
C635.978,-110.236,635.968,-108.329,635.957,-106.423
C632.941,99.0095,543.306,236.951,440.688,332.082
C439.451,333.157,438.215,334.231,436.979,335.306
C581.498,219.264,653.804,46.5867,654.983,-133.258
C654.013,-523.171,320.325,-866.346,-137.412,-867.589
C-215.305,-867.108,-271.178,-858.465,-332.931,-845.195
C-338.137,-843.954,-343.343,-842.714,-348.549,-841.473Z"/>
<use transform="rotate(180)" xlink:href="#Swash"/>
</g>
</g>
</svg>
